# xmcd
#
# Track frame offsets: 
#        150
#        22295
#        38183
#        55440
#        83663
#        111128
#        129110
#        159558
#        175028
#        192338
#        209726
#
# Disc length: 3404 seconds
#
# Revision: 2
# Processed by: cddbd v1.5.2PL0 Copyright (c) Steve Scherf et al.
# Submitted via: ExactAudioCopy v0.95b3
#
DISCID=960d4a0b
DTITLE=George Winston - Gulf Coast Blues and Impressions, Vol. 2 (A Loui
DTITLE=siana Wetlands Benefit)
DYEAR=2012
DGENRE=Easy Listening
TTITLE0=New Orleans Shall Rise Again # 7 (Are The Levees Shored Up In 
TTITLE0=America?)
TTITLE1=Pixie # 6 In E Minor (Gobajie)
TTITLE2=Kindred Spirit
TTITLE3=Elements
TTITLE4=Fanning The Flames
TTITLE5=The Gulf Will Live Again #1
TTITLE6=Georgianna
TTITLE7=The Cries Of The Wetlands 1
TTITLE8=The Cries Of The Wetlands 2
TTITLE9=New Orleans Slow Dance
TTITLE10=An African In The Americas
EXTD=YEAR: 2012
EXTT0=
EXTT1=
EXTT2=
EXTT3=
EXTT4=
EXTT5=
EXTT6=
EXTT7=
EXTT8=
EXTT9=
EXTT10=
PLAYORDER=
